:SAMPLES-PER-SECOND 30
:FULLY-SPECIFIED
:DEGREES
62
root  59.3123 39.6046 -0.714298 -1.48042 -87.8171 -0.438034
RightUpLeg  4.66571 -10.2175 -3.77006
RightLeg  13.3676 -7.01501 3.51006
RightFoot  -14.5129 -0.149529 -1.91126
RightToes  -4.65663e-010 0 -3.6325e-017
Spine  9.48962 0.330331 6.92897
Spine1  8.68807 0.476925 1.46594
HEad  9.93015 -1.73432 -3.85816
LeftShoulder1  6.76813 -10.7703 -41.0922
LeftArm  -11.4775 9.89639 -32.8105
LeftForeArm  34.4008 -25.4854 -3.6466
LeftHand  -0.244104 0.0205437 5.32207
RightShoulder  3.52124 6.19987 30.3259
RightArm  -9.16229 0.586238 30.9203
RightForeArm  -1.50523 27.333 5.97044
RightHand  -1.29081 2.42225 -19.2436
LeftUpLeg  -20.7012 11.5965 -2.92184
LeftLeg  11.7496 2.93037 -0.0889738
LeftFoot  3.16901 0.232518 -1.9661
LeftToes  -5.82109e-011 -4.83791e-012 -1.00937e-011
63
root  58.1801 39.4438 -0.659433 -9.23705 -87.2383 6.74066
RightUpLeg  7.25248 -10.9403 -4.69109
RightLeg  13.6383 -6.33224 3.30311
RightFoot  -16.2158 -0.141882 -0.744277
RightToes  -4.65663e-010 0 -3.6325e-017
Spine  9.77531 0.223713 6.11575
Spine1  8.96541 0.477325 0.954297
HEad  9.55584 -1.70596 -3.16557
LeftShoulder1  6.76444 -10.8215 -40.9095
LeftArm  -9.99178 10.7193 -32.9226
LeftForeArm  32.3512 -21.1301 -3.30589
LeftHand  -0.244104 0.0205437 5.32207
RightShoulder  3.58928 6.41762 30.2145
RightArm  -9.84591 0.707314 31.0509
RightForeArm  -1.54108 29.6897 6.54383
RightHand  -1.51009 3.29954 -20.2029
LeftUpLeg  -19.1432 8.4045 -1.68817
LeftLeg  7.3289 9.50865 -2.07347
LeftFoot  4.31192 0.213479 -1.7408
LeftToes  -5.82109e-011 -4.83791e-012 -1.00937e-011
64
root  56.9576 39.2012 -0.555957 -14.332 -86.5277 11.38
RightUpLeg  9.21693 -12.5995 -5.67953
RightLeg  15.3433 -5.28379 2.38488
RightFoot  -18.0245 -0.12984 -0.113633
RightToes  -4.65663e-010 0 -3.6325e-017
Spine  9.74536 0.0938222 5.30117
Spine1  8.97021 0.484871 0.366793
HEad  9.58222 -1.83349 -2.20331
LeftShoulder1  6.73827 -10.8653 -40.6029
LeftArm  -10.5054 11.5778 -32.8861
LeftForeArm  33.2691 -15.9978 -3.95536
LeftHand  -0.244104 0.0205437 5.32207
RightShoulder  3.63243 6.60463 29.9685
RightArm  -9.36612 0.137589 31.7808
RightForeArm  -2.36226 30.584 6.81389
RightHand  -2 5.29657 -21.7634
LeftUpLeg  -18.7791 9.96352 -3.04587
LeftLeg  8.37588 10.1953 -1.7486
LeftFoot  5.20194 0.0658848 -0.689434
LeftToes  -5.82109e-011 -4.83791e-012 -1.00937e-011
65
root  55.6679 38.9389 -0.415882 -24.3416 -86.2741 21.0008
RightUpLeg  10.4562 -14.6088 -6.89985
RightLeg  18.3516 -3.06942 0.685187
RightFoot  -19.7724 -0.0416376 1.15827
RightToes  -4.65663e-010 0 -3.6325e-017
Spine  9.67755 0.252824 4.1114
Spine1  8.81785 0.795777 -0.211594
HEad  9.85102 -2.1629 -1.207
LeftShoulder1  6.73506 -10.8139 -40.7406
LeftArm  -11.7812 12.5261 -32.3587
LeftForeArm  36.0707 -11.2135 -4.56633
LeftHand  -0.244104 0.0205437 5.32207
RightShoulder  3.66848 6.70941 29.953
RightArm  -7.86245 -1.00604 32.5602
RightForeArm  -3.31747 30.2193 6.77304
RightHand  -2.36967 6.6605 -22.8612
LeftUpLeg  -18.7508 13.5981 -5.68825
LeftLeg  11.9705 7.25844 0.0714179
LeftFoot  5.39533 -0.456367 2.90795
LeftToes  -5.82109e-011 -4.83791e-012 -1.00937e-011
66
root  54.4126 38.7445 -0.272736 -44.2306 -86.2763 40.4417
RightUpLeg  10.3734 -13.671 -7.94786
RightLeg  23.073 -2.01979 -1.27338
RightFoot  -20.2538 0.288378 5.57879
RightToes  -4.65663e-010 0 -3.6325e-017
Spine  10.0907 0.715096 2.30869
Spine1  8.79584 1.38741 -0.864371
HEad  9.91374 -2.53866 -0.292725
LeftShoulder1  6.77615 -10.6916 -41.3904
LeftArm  -11.9896 13.4552 -31.5334
LeftForeArm  37.7949 -7.98278 -4.55979
LeftHand  -0.244104 0.0205437 5.32207
RightShoulder  3.82244 6.92215 30.7044
RightArm  -6.16832 -2.32537 32.9806
RightForeArm  -3.32878 28.766 6.4131
RightHand  -2.32385 6.49571 -22.7138
LeftUpLeg  -18.4229 16.0399 -7.86809
LeftLeg  15.6026 5.19902 1.56628
LeftFoot  3.85796 -0.982708 7.20909
LeftToes  -5.82109e-011 -4.83791e-012 -1.00937e-011
67
root  53.2627 38.6877 -0.144835 -63.8486 -85.7762 59.6669
RightUpLeg  7.98193 -9.22268 -8.45192
RightLeg  30.8746 -4.53137 -3.20193
RightFoot  -16.8436 0.393052 10.9604
RightToes  -4.65663e-010 0 -3.6325e-017
Spine  10.9901 1.12374 0.269111
Spine1  8.97838 1.82364 -1.44373
HEad  9.29742 -2.76109 0.509921
LeftShoulder1  6.84874 -10.6501 -41.9989
LeftArm  -11.9409 14.3514 -31.0061
LeftForeArm  37.8163 -6.56585 -4.36726
LeftHand  -0.244104 0.0205437 5.32207
RightShoulder  4.08983 7.2927 31.9359
RightArm  -4.53091 -3.55935 33.5061
RightForeArm  -2.48924 26.2109 5.75554
RightHand  -2.01361 5.50514 -21.503
LeftUpLeg  -17.6002 17.0201 -8.99182
LeftLeg  18.4578 5.07425 2.26409
LeftFoot  0.960507 -0.941755 8.59795
LeftToes  -5.82109e-011 -4.83791e-012 -1.00937e-011
68
root  52.1951 38.7506 -0.0197647 -70.8411 -85.0062 66.4926
RightUpLeg  3.10415 -7.45045 -9.13248
RightLeg  41.5231 -5.95581 -5.92166
RightFoot  -8.14314 -0.319384 11.4292
RightToes  -4.65663e-010 0 -3.6325e-017
Spine  12.0939 1.21703 -1.43606
Spine1  9.07681 1.7997 -1.59988
HEad  8.08183 -2.65747 0.937441
LeftShoulder1  6.90421 -10.7252 -42.1249
LeftArm  -12.3581 15.2792 -31.2052
LeftForeArm  36.9493 -6.57348 -4.22802
LeftHand  -0.244104 0.0205437 5.32207
RightShoulder  4.31805 7.63428 32.828
RightArm  -2.37916 -5.04811 34.6902
RightForeArm  -1.96755 23.3501 5.14248
RightHand  -1.67873 4.42922 -19.9307
LeftUpLeg  -16.1649 17.6454 -9.40049
LeftLeg  19.8937 5.05478 2.35429
LeftFoot  -1.67282 -0.587117 7.0412
LeftToes  -5.82109e-011 -4.83791e-012 -1.00937e-011
69
root  51.2041 38.8352 0.107628 -72.3525 -84.3895 68.0635
RightUpLeg  -3.23576 -7.05391 -9.63125
RightLeg  51.8219 -5.73355 -8.08317
RightFoot  2.04285 -0.721472 6.29644
RightToes  -4.65663e-010 0 -3.6325e-017
Spine  13.4158 1.17989 -2.84454
Spine1  8.9242 1.5006 -1.4004
HEad  6.73721 -2.40478 0.782251
LeftShoulder1  6.91335 -10.7944 -41.966
LeftArm  -12.8809 16.0389 -31.9009
LeftForeArm  36.3566 -7.621 -4.17392
LeftHand  -0.244104 0.0205437 5.32207
RightShoulder  4.42396 7.7942 33.2143
RightArm  0.344581 -7.28824 36.1865
RightForeArm  -1.80941 21.7341 5.03882
RightHand  -1.36466 3.19798 -18.5462
LeftUpLeg  -14.4587 18.3123 -9.65655
LeftLeg  20.1525 4.49724 2.16279
LeftFoot  -3.43036 -0.366512 5.62488
LeftToes  -5.82109e-011 -4.83791e-012 -1.00937e-011
